<svg width="24" height="28" viewBox="0 0 24 28" fill="none" xmlns="http://www.w3.org/2000/svg">
<path fill-rule="evenodd" clip-rule="evenodd" d="M18.8571 0H8.57143L6.85714 1.71429V6.85714H1.71429L0 8.57143V25.7943L1.71429 27.4286H15.5086L17.1429 25.7943V20.5714H22.5143L24 18.9371V5.14286L18.8571 0ZM18.8571 2.42286L21.5771 5.14286H18.8571V2.42286ZM1.71429 25.7143V8.57143H6.85714V18.9371L8.57143 20.5714H15.4286V25.7143H1.71429ZM9.96565 12.8914V17.5381H11.1191V14.5351L12.8492 16.2777L14.5793 14.5351V17.5381H15.7327V12.8914H14.5793L12.8492 14.6339L11.1191 12.8914H9.96565ZM19.7696 12.8914H18.0395V15.2147H16.5977L18.9046 17.8285L21.2114 15.2147H19.7696V12.8914Z" fill="black"/>
</svg>
